<?xml version="1.0" encoding="utf-8"?>
<!-- Generator: Adobe Illustrator 15.0.0, SVG Export Plug-In . SVG Version: 6.00 Build 0)  -->
<!DOCTYPE svg PUBLIC "-//W3C//DTD SVG 1.1//EN" "http://www.w3.org/Graphics/SVG/1.1/DTD/svg11.dtd">
<svg version="1.1" id="Layer_1" xmlns="http://www.w3.org/2000/svg" xmlns:xlink="http://www.w3.org/1999/xlink" x="0px" y="0px"
	 width="80px" height="400px" viewBox="0 0 80 400" enable-background="new 0 0 80 400" xml:space="preserve">
<rect x="-0.5" display="none" fill="#010202" width="80.5" height="403.5"/>
<g>
	<rect x="30.938" y="18.125" fill="#FFFFFF" width="1" height="1"/>
	<rect x="32.938" y="20.125" fill="#FFFFFF" width="1" height="1"/>
	<rect x="31.938" y="19.125" fill="#FFFFFF" width="1" height="1"/>
	<rect x="33.938" y="21.125" fill="#FFFFFF" width="1" height="1"/>
	<rect x="35.938" y="23.125" fill="#FFFFFF" width="1" height="1"/>
	<rect x="34.938" y="22.125" fill="#FFFFFF" width="1" height="1"/>
	<rect x="36.938" y="24.125" fill="#FFFFFF" width="1" height="1"/>
	<rect x="38.938" y="26.125" fill="#FFFFFF" width="1" height="1"/>
	<rect x="37.938" y="25.125" fill="#FFFFFF" width="1" height="1"/>
	<rect x="39.938" y="27.125" fill="#FFFFFF" width="1" height="1"/>
	<rect x="41.938" y="29.125" fill="#FFFFFF" width="1" height="1"/>
	<rect x="40.938" y="28.125" fill="#FFFFFF" width="1" height="1"/>
	<rect x="42.938" y="30.125" fill="#FFFFFF" width="1" height="1"/>
	<rect x="44.938" y="32.125" fill="#FFFFFF" width="1" height="1"/>
	<rect x="43.938" y="31.125" fill="#FFFFFF" width="1" height="1"/>
	<rect x="45.938" y="33.125" fill="#FFFFFF" width="1" height="1"/>
	<rect x="46.938" y="34.125" fill="#FFFFFF" width="1" height="1"/>
	<rect x="47.938" y="35.125" fill="#FFFFFF" width="1" height="1"/>
	<rect x="48.938" y="36.125" fill="#FFFFFF" width="1" height="1"/>
	<rect x="49.938" y="37.125" fill="#FFFFFF" width="1" height="1"/>
	<rect x="50.938" y="38.125" fill="#FFFFFF" width="1" height="1"/>
	<rect x="51.938" y="39.125" fill="#FFFFFF" width="1" height="1"/>
	<rect x="45.938" y="45.125" fill="#FFFFFF" width="1" height="1"/>
	<rect x="46.938" y="44.125" fill="#FFFFFF" width="1" height="1"/>
	<rect x="44.938" y="46.125" fill="#FFFFFF" width="1" height="1"/>
	<rect x="48.938" y="42.125" fill="#FFFFFF" width="1" height="1"/>
	<rect x="49.938" y="41.125" fill="#FFFFFF" width="1" height="1"/>
	<rect x="47.938" y="43.125" fill="#FFFFFF" width="1" height="1"/>
	<rect x="50.938" y="40.125" fill="#FFFFFF" width="1" height="1"/>
	<rect x="49.938" y="41.125" fill="#FFFFFF" width="1" height="1"/>
	<rect x="42.938" y="48.125" fill="#FFFFFF" width="1" height="1"/>
	<rect x="43.938" y="47.125" fill="#FFFFFF" width="1" height="1"/>
	<rect x="41.938" y="49.125" fill="#FFFFFF" width="1" height="1"/>
	<rect x="39.938" y="51.125" fill="#FFFFFF" width="1" height="1"/>
	<rect x="40.938" y="50.125" fill="#FFFFFF" width="1" height="1"/>
	<rect x="38.938" y="52.125" fill="#FFFFFF" width="1" height="1"/>
	<rect x="36.938" y="54.125" fill="#FFFFFF" width="1" height="1"/>
	<rect x="37.938" y="53.125" fill="#FFFFFF" width="1" height="1"/>
	<rect x="35.938" y="55.125" fill="#FFFFFF" width="1" height="1"/>
	<rect x="33.938" y="57.125" fill="#FFFFFF" width="1" height="1"/>
	<rect x="34.938" y="56.125" fill="#FFFFFF" width="1" height="1"/>
	<rect x="32.938" y="58.125" fill="#FFFFFF" width="1" height="1"/>
	<rect x="30.938" y="60.125" fill="#FFFFFF" width="1" height="1"/>
	<rect x="31.938" y="59.125" fill="#FFFFFF" width="1" height="1"/>
</g>
<g>
	<rect x="48.938" y="99.125" fill="#FFFFFF" width="1" height="1"/>
	<rect x="46.938" y="101.125" fill="#FFFFFF" width="1" height="1"/>
	<rect x="47.938" y="100.125" fill="#FFFFFF" width="1" height="1"/>
	<rect x="45.938" y="102.125" fill="#FFFFFF" width="1" height="1"/>
	<rect x="43.938" y="104.125" fill="#FFFFFF" width="1" height="1"/>
	<rect x="44.938" y="103.125" fill="#FFFFFF" width="1" height="1"/>
	<rect x="42.938" y="105.125" fill="#FFFFFF" width="1" height="1"/>
	<rect x="40.938" y="107.125" fill="#FFFFFF" width="1" height="1"/>
	<rect x="41.938" y="106.125" fill="#FFFFFF" width="1" height="1"/>
	<rect x="39.938" y="108.125" fill="#FFFFFF" width="1" height="1"/>
	<rect x="37.938" y="110.125" fill="#FFFFFF" width="1" height="1"/>
	<rect x="38.938" y="109.125" fill="#FFFFFF" width="1" height="1"/>
	<rect x="36.938" y="111.125" fill="#FFFFFF" width="1" height="1"/>
	<rect x="34.938" y="113.125" fill="#FFFFFF" width="1" height="1"/>
	<rect x="35.938" y="112.125" fill="#FFFFFF" width="1" height="1"/>
	<rect x="33.938" y="114.125" fill="#FFFFFF" width="1" height="1"/>
	<rect x="32.938" y="115.125" fill="#FFFFFF" width="1" height="1"/>
	<rect x="31.938" y="116.125" fill="#FFFFFF" width="1" height="1"/>
	<rect x="30.938" y="117.125" fill="#FFFFFF" width="1" height="1"/>
	<rect x="29.938" y="118.125" fill="#FFFFFF" width="1" height="1"/>
	<rect x="28.938" y="119.125" fill="#FFFFFF" width="1" height="1"/>
	<rect x="27.938" y="120.125" fill="#FFFFFF" width="1" height="1"/>
	<rect x="33.938" y="126.125" fill="#FFFFFF" width="1" height="1"/>
	<rect x="32.938" y="125.125" fill="#FFFFFF" width="1" height="1"/>
	<rect x="34.938" y="127.125" fill="#FFFFFF" width="1" height="1"/>
	<rect x="30.938" y="123.125" fill="#FFFFFF" width="1" height="1"/>
	<rect x="29.938" y="122.125" fill="#FFFFFF" width="1" height="1"/>
	<rect x="31.938" y="124.125" fill="#FFFFFF" width="1" height="1"/>
	<rect x="28.938" y="121.125" fill="#FFFFFF" width="1" height="1"/>
	<rect x="29.938" y="122.125" fill="#FFFFFF" width="1" height="1"/>
	<rect x="36.938" y="129.125" fill="#FFFFFF" width="1" height="1"/>
	<rect x="35.938" y="128.125" fill="#FFFFFF" width="1" height="1"/>
	<rect x="37.938" y="130.125" fill="#FFFFFF" width="1" height="1"/>
	<rect x="39.938" y="132.125" fill="#FFFFFF" width="1" height="1"/>
	<rect x="38.938" y="131.125" fill="#FFFFFF" width="1" height="1"/>
	<rect x="40.938" y="133.125" fill="#FFFFFF" width="1" height="1"/>
	<rect x="42.938" y="135.125" fill="#FFFFFF" width="1" height="1"/>
	<rect x="41.938" y="134.125" fill="#FFFFFF" width="1" height="1"/>
	<rect x="43.938" y="136.125" fill="#FFFFFF" width="1" height="1"/>
	<rect x="45.938" y="138.125" fill="#FFFFFF" width="1" height="1"/>
	<rect x="44.938" y="137.125" fill="#FFFFFF" width="1" height="1"/>
	<rect x="46.938" y="139.125" fill="#FFFFFF" width="1" height="1"/>
	<rect x="48.938" y="141.125" fill="#FFFFFF" width="1" height="1"/>
	<rect x="47.938" y="140.125" fill="#FFFFFF" width="1" height="1"/>
</g>
<g>
	<rect x="37.938" y="189.125" fill="#FFFFFF" width="1" height="1"/>
	<rect x="35.938" y="191.125" fill="#FFFFFF" width="1" height="1"/>
	<rect x="36.938" y="190.125" fill="#FFFFFF" width="1" height="1"/>
	<rect x="34.938" y="192.125" fill="#FFFFFF" width="1" height="1"/>
	<rect x="32.938" y="194.125" fill="#FFFFFF" width="1" height="1"/>
	<rect x="33.938" y="193.125" fill="#FFFFFF" width="1" height="1"/>
	<rect x="31.938" y="195.125" fill="#FFFFFF" width="1" height="1"/>
	<rect x="29.938" y="197.125" fill="#FFFFFF" width="1" height="1"/>
	<rect x="30.938" y="196.125" fill="#FFFFFF" width="1" height="1"/>
	<rect x="28.938" y="198.125" fill="#FFFFFF" width="1" height="1"/>
	<rect x="26.938" y="200.125" fill="#FFFFFF" width="1" height="1"/>
	<rect x="27.938" y="199.125" fill="#FFFFFF" width="1" height="1"/>
	<rect x="25.938" y="201.125" fill="#FFFFFF" width="1" height="1"/>
	<rect x="23.938" y="203.125" fill="#FFFFFF" width="1" height="1"/>
	<rect x="24.938" y="202.125" fill="#FFFFFF" width="1" height="1"/>
	<rect x="22.938" y="204.125" fill="#FFFFFF" width="1" height="1"/>
	<rect x="21.938" y="205.125" fill="#FFFFFF" width="1" height="1"/>
	<rect x="20.938" y="206.125" fill="#FFFFFF" width="1" height="1"/>
	<rect x="19.938" y="207.125" fill="#FFFFFF" width="1" height="1"/>
	<rect x="18.938" y="208.125" fill="#FFFFFF" width="1" height="1"/>
	<rect x="17.938" y="209.125" fill="#FFFFFF" width="1" height="1"/>
	<rect x="38.938" y="188.125" fill="#FFFFFF" width="1" height="1"/>
	<rect x="44.938" y="194.125" fill="#FFFFFF" width="1" height="1"/>
	<rect x="43.938" y="193.125" fill="#FFFFFF" width="1" height="1"/>
	<rect x="45.938" y="195.125" fill="#FFFFFF" width="1" height="1"/>
	<rect x="41.938" y="191.125" fill="#FFFFFF" width="1" height="1"/>
	<rect x="40.938" y="190.125" fill="#FFFFFF" width="1" height="1"/>
	<rect x="42.938" y="192.125" fill="#FFFFFF" width="1" height="1"/>
	<rect x="39.938" y="189.125" fill="#FFFFFF" width="1" height="1"/>
	<rect x="40.938" y="190.125" fill="#FFFFFF" width="1" height="1"/>
	<rect x="47.938" y="197.125" fill="#FFFFFF" width="1" height="1"/>
	<rect x="46.938" y="196.125" fill="#FFFFFF" width="1" height="1"/>
	<rect x="48.938" y="198.125" fill="#FFFFFF" width="1" height="1"/>
	<rect x="50.938" y="200.125" fill="#FFFFFF" width="1" height="1"/>
	<rect x="49.938" y="199.125" fill="#FFFFFF" width="1" height="1"/>
	<rect x="51.938" y="201.125" fill="#FFFFFF" width="1" height="1"/>
	<rect x="53.938" y="203.125" fill="#FFFFFF" width="1" height="1"/>
	<rect x="52.938" y="202.125" fill="#FFFFFF" width="1" height="1"/>
	<rect x="54.938" y="204.125" fill="#FFFFFF" width="1" height="1"/>
	<rect x="56.938" y="206.125" fill="#FFFFFF" width="1" height="1"/>
	<rect x="55.938" y="205.125" fill="#FFFFFF" width="1" height="1"/>
	<rect x="57.938" y="207.125" fill="#FFFFFF" width="1" height="1"/>
	<rect x="59.938" y="209.125" fill="#FFFFFF" width="1" height="1"/>
	<rect x="58.938" y="208.125" fill="#FFFFFF" width="1" height="1"/>
</g>
<g>
	<rect x="59.938" y="270.125" fill="#FFFFFF" width="1" height="1"/>
	<rect x="57.938" y="272.125" fill="#FFFFFF" width="1" height="1"/>
	<rect x="58.938" y="271.125" fill="#FFFFFF" width="1" height="1"/>
	<rect x="56.938" y="273.125" fill="#FFFFFF" width="1" height="1"/>
	<rect x="54.938" y="275.125" fill="#FFFFFF" width="1" height="1"/>
	<rect x="55.938" y="274.125" fill="#FFFFFF" width="1" height="1"/>
	<rect x="53.938" y="276.125" fill="#FFFFFF" width="1" height="1"/>
	<rect x="51.938" y="278.125" fill="#FFFFFF" width="1" height="1"/>
	<rect x="52.938" y="277.125" fill="#FFFFFF" width="1" height="1"/>
	<rect x="50.938" y="279.125" fill="#FFFFFF" width="1" height="1"/>
	<rect x="48.938" y="281.125" fill="#FFFFFF" width="1" height="1"/>
	<rect x="49.938" y="280.125" fill="#FFFFFF" width="1" height="1"/>
	<rect x="47.938" y="282.125" fill="#FFFFFF" width="1" height="1"/>
	<rect x="45.938" y="284.125" fill="#FFFFFF" width="1" height="1"/>
	<rect x="46.938" y="283.125" fill="#FFFFFF" width="1" height="1"/>
	<rect x="44.938" y="285.125" fill="#FFFFFF" width="1" height="1"/>
	<rect x="43.938" y="286.125" fill="#FFFFFF" width="1" height="1"/>
	<rect x="42.938" y="287.125" fill="#FFFFFF" width="1" height="1"/>
	<rect x="41.938" y="288.125" fill="#FFFFFF" width="1" height="1"/>
	<rect x="40.938" y="289.125" fill="#FFFFFF" width="1" height="1"/>
	<rect x="39.938" y="290.125" fill="#FFFFFF" width="1" height="1"/>
	<rect x="38.938" y="291.125" fill="#FFFFFF" width="1" height="1"/>
	<rect x="22.938" y="275.125" fill="#FFFFFF" width="1" height="1"/>
	<rect x="21.938" y="274.125" fill="#FFFFFF" width="1" height="1"/>
	<rect x="23.938" y="276.125" fill="#FFFFFF" width="1" height="1"/>
	<rect x="19.938" y="272.125" fill="#FFFFFF" width="1" height="1"/>
	<rect x="18.938" y="271.125" fill="#FFFFFF" width="1" height="1"/>
	<rect x="20.938" y="273.125" fill="#FFFFFF" width="1" height="1"/>
	<rect x="17.938" y="270.125" fill="#FFFFFF" width="1" height="1"/>
	<rect x="18.938" y="271.125" fill="#FFFFFF" width="1" height="1"/>
	<rect x="25.938" y="278.125" fill="#FFFFFF" width="1" height="1"/>
	<rect x="24.938" y="277.125" fill="#FFFFFF" width="1" height="1"/>
	<rect x="26.938" y="279.125" fill="#FFFFFF" width="1" height="1"/>
	<rect x="28.938" y="281.125" fill="#FFFFFF" width="1" height="1"/>
	<rect x="27.938" y="280.125" fill="#FFFFFF" width="1" height="1"/>
	<rect x="29.938" y="282.125" fill="#FFFFFF" width="1" height="1"/>
	<rect x="31.938" y="284.125" fill="#FFFFFF" width="1" height="1"/>
	<rect x="30.938" y="283.125" fill="#FFFFFF" width="1" height="1"/>
	<rect x="32.938" y="285.125" fill="#FFFFFF" width="1" height="1"/>
	<rect x="34.938" y="287.125" fill="#FFFFFF" width="1" height="1"/>
	<rect x="33.938" y="286.125" fill="#FFFFFF" width="1" height="1"/>
	<rect x="35.938" y="288.125" fill="#FFFFFF" width="1" height="1"/>
	<rect x="37.938" y="290.125" fill="#FFFFFF" width="1" height="1"/>
	<rect x="36.938" y="289.125" fill="#FFFFFF" width="1" height="1"/>
</g>
<g>
	<rect x="37.938" y="361.125" fill="#FFFFFF" width="1" height="1"/>
	<rect x="35.938" y="363.125" fill="#FFFFFF" width="1" height="1"/>
	<rect x="36.938" y="362.125" fill="#FFFFFF" width="1" height="1"/>
	<rect x="34.938" y="364.125" fill="#FFFFFF" width="1" height="1"/>
	<rect x="32.938" y="366.125" fill="#FFFFFF" width="1" height="1"/>
	<rect x="33.938" y="365.125" fill="#FFFFFF" width="1" height="1"/>
	<rect x="31.938" y="367.125" fill="#FFFFFF" width="1" height="1"/>
	<rect x="29.938" y="369.125" fill="#FFFFFF" width="1" height="1"/>
	<rect x="30.938" y="368.125" fill="#FFFFFF" width="1" height="1"/>
	<rect x="28.938" y="370.125" fill="#FFFFFF" width="1" height="1"/>
	<rect x="27.938" y="371.125" fill="#FFFFFF" width="1" height="1"/>
	<rect x="38.938" y="360.125" fill="#FFFFFF" width="1" height="1"/>
	<rect x="44.938" y="366.125" fill="#FFFFFF" width="1" height="1"/>
	<rect x="43.938" y="365.125" fill="#FFFFFF" width="1" height="1"/>
	<rect x="45.938" y="367.125" fill="#FFFFFF" width="1" height="1"/>
	<rect x="41.938" y="363.125" fill="#FFFFFF" width="1" height="1"/>
	<rect x="40.938" y="362.125" fill="#FFFFFF" width="1" height="1"/>
	<rect x="42.938" y="364.125" fill="#FFFFFF" width="1" height="1"/>
	<rect x="39.938" y="361.125" fill="#FFFFFF" width="1" height="1"/>
	<rect x="40.938" y="362.125" fill="#FFFFFF" width="1" height="1"/>
	<rect x="47.938" y="369.125" fill="#FFFFFF" width="1" height="1"/>
	<rect x="46.938" y="368.125" fill="#FFFFFF" width="1" height="1"/>
	<rect x="48.938" y="370.125" fill="#FFFFFF" width="1" height="1"/>
	<rect x="49.938" y="371.125" fill="#FFFFFF" width="1" height="1"/>
	<rect x="48.938" y="350.125" fill="#FFFFFF" width="1" height="1"/>
	<rect x="49.938" y="349.125" fill="#FFFFFF" width="1" height="1"/>
	<rect x="47.938" y="351.125" fill="#FFFFFF" width="1" height="1"/>
	<rect x="45.938" y="353.125" fill="#FFFFFF" width="1" height="1"/>
	<rect x="46.938" y="352.125" fill="#FFFFFF" width="1" height="1"/>
	<rect x="44.938" y="354.125" fill="#FFFFFF" width="1" height="1"/>
	<rect x="43.938" y="355.125" fill="#FFFFFF" width="1" height="1"/>
	<rect x="42.938" y="356.125" fill="#FFFFFF" width="1" height="1"/>
	<rect x="41.938" y="357.125" fill="#FFFFFF" width="1" height="1"/>
	<rect x="40.938" y="358.125" fill="#FFFFFF" width="1" height="1"/>
	<rect x="39.938" y="359.125" fill="#FFFFFF" width="1" height="1"/>
	<rect x="38.938" y="360.125" fill="#FFFFFF" width="1" height="1"/>
	<rect x="28.938" y="350.125" fill="#FFFFFF" width="1" height="1"/>
	<rect x="27.938" y="349.125" fill="#FFFFFF" width="1" height="1"/>
	<rect x="29.938" y="351.125" fill="#FFFFFF" width="1" height="1"/>
	<rect x="31.938" y="353.125" fill="#FFFFFF" width="1" height="1"/>
	<rect x="30.938" y="352.125" fill="#FFFFFF" width="1" height="1"/>
	<rect x="32.938" y="354.125" fill="#FFFFFF" width="1" height="1"/>
	<rect x="34.938" y="356.125" fill="#FFFFFF" width="1" height="1"/>
	<rect x="33.938" y="355.125" fill="#FFFFFF" width="1" height="1"/>
	<rect x="35.938" y="357.125" fill="#FFFFFF" width="1" height="1"/>
	<rect x="37.938" y="359.125" fill="#FFFFFF" width="1" height="1"/>
	<rect x="36.938" y="358.125" fill="#FFFFFF" width="1" height="1"/>
</g>
</svg>
