<?xml version="1.0" encoding="utf-8"?>
<!-- Generator: Adobe Illustrator 15.0.0, SVG Export Plug-In . SVG Version: 6.00 Build 0)  -->
<!DOCTYPE svg PUBLIC "-//W3C//DTD SVG 1.1//EN" "http://www.w3.org/Graphics/SVG/1.1/DTD/svg11.dtd">
<svg version="1.1" id="Layer_1" xmlns="http://www.w3.org/2000/svg" xmlns:xlink="http://www.w3.org/1999/xlink" x="0px" y="0px"
	 width="64px" height="64px" viewBox="0 0 64 64" enable-background="new 0 0 64 64" xml:space="preserve">
<g>
	<g>
		<path fill="#010202" d="M51.151,32.367c-0.29-0.797-0.701-1.492-1.232-2.085c-0.533-0.592-1.186-1.057-1.96-1.396
			c-0.772-0.338-1.644-0.507-2.61-0.507c-0.773,0-1.494,0.121-2.158,0.363c-0.664,0.241-1.281,0.562-1.85,0.96
			c-0.568,0.399-1.101,0.865-1.597,1.396c-0.495,0.533-0.972,1.076-1.433,1.631c-0.483-0.58-0.974-1.129-1.469-1.65
			c-0.496-0.519-1.028-0.979-1.596-1.378c-0.567-0.398-1.185-0.719-1.85-0.96c-0.665-0.242-1.396-0.363-2.195-0.363
			c-0.966,0-1.838,0.176-2.611,0.526c-0.774,0.351-1.427,0.822-1.958,1.414c-0.526,0.587-0.927,1.281-1.204,2.08
			c-0.232-0.536-0.509-1.034-0.872-1.457c-0.479-0.557-1.066-1-1.763-1.332c-0.696-0.331-1.498-0.496-2.403-0.496
			c-0.731,0-1.384,0.108-1.959,0.326c-0.574,0.218-1.114,0.579-1.618,1.084l-0.053-0.053l0.732-4.151h7.547v-3.055H14.829
			L13.027,33.37h3.343c0.365-0.505,0.757-0.875,1.175-1.11c0.417-0.236,0.957-0.352,1.619-0.352c0.504,0,0.949,0.087,1.332,0.261
			c0.383,0.175,0.713,0.418,0.993,0.731c0.278,0.313,0.487,0.679,0.626,1.097c0.139,0.417,0.209,0.86,0.209,1.331
			c0,0.453-0.074,0.893-0.222,1.319c-0.148,0.427-0.357,0.801-0.627,1.123c-0.27,0.321-0.6,0.583-0.992,0.782
			c-0.393,0.2-0.832,0.301-1.319,0.301c-0.835,0-1.523-0.248-2.063-0.745c-0.54-0.495-0.853-1.162-0.94-1.996h-3.708
			c0.017,0.958,0.213,1.797,0.588,2.52c0.374,0.722,0.875,1.327,1.501,1.813c0.626,0.487,1.345,0.849,2.155,1.083
			c0.809,0.236,1.658,0.354,2.546,0.354c0.922,0.018,1.793-0.135,2.611-0.457c0.818-0.322,1.537-0.778,2.155-1.371
			c0.617-0.59,1.109-1.292,1.475-2.101c0.012-0.027,0.021-0.056,0.032-0.083c0.287,0.744,0.675,1.402,1.19,1.95
			c0.556,0.592,1.221,1.064,1.994,1.415c0.774,0.349,1.656,0.524,2.648,0.524c0.799,0,1.518-0.114,2.158-0.343
			c0.641-0.23,1.233-0.532,1.778-0.908c0.544-0.375,1.056-0.811,1.541-1.306c0.482-0.495,0.979-1.008,1.486-1.54
			c0.461,0.532,0.943,1.045,1.452,1.54c0.507,0.495,1.044,0.931,1.613,1.306c0.567,0.376,1.179,0.678,1.832,0.908
			c0.651,0.229,1.353,0.343,2.104,0.343c0.968,0,1.843-0.176,2.629-0.524c0.786-0.351,1.444-0.835,1.978-1.452
			c0.531-0.616,0.942-1.335,1.232-2.157c0.29-0.821,0.436-1.704,0.436-2.646C51.587,34.035,51.441,33.165,51.151,32.367z
			 M35.156,36.192c-0.363,0.352-0.749,0.666-1.161,0.944c-0.41,0.277-0.846,0.506-1.306,0.688c-0.459,0.182-0.918,0.271-1.377,0.271
			c-0.896,0-1.596-0.277-2.104-0.833c-0.508-0.557-0.762-1.27-0.762-2.14c0-0.798,0.248-1.517,0.744-2.158
			c0.495-0.639,1.165-0.961,2.012-0.961c0.459,0,0.918,0.104,1.378,0.309s0.901,0.465,1.324,0.778
			c0.423,0.315,0.828,0.66,1.216,1.034c0.386,0.375,0.725,0.721,1.015,1.034C35.846,35.497,35.519,35.842,35.156,36.192z
			 M47.453,37.227c-0.485,0.58-1.173,0.869-2.067,0.869c-0.509,0-0.987-0.083-1.433-0.253c-0.449-0.169-0.877-0.393-1.288-0.671
			c-0.413-0.278-0.799-0.593-1.162-0.942c-0.362-0.35-0.701-0.707-1.014-1.07c0.289-0.313,0.616-0.659,0.979-1.034
			c0.363-0.374,0.743-0.719,1.144-1.034c0.397-0.312,0.821-0.572,1.269-0.778s0.912-0.309,1.396-0.309
			c0.895,0,1.603,0.303,2.122,0.907c0.521,0.604,0.78,1.329,0.78,2.176S47.936,36.646,47.453,37.227z"/>
	</g>
</g>
</svg>
