<?xml version="1.0" encoding="utf-8"?>
<!-- Generator: Adobe Illustrator 15.0.0, SVG Export Plug-In . SVG Version: 6.00 Build 0)  -->
<!DOCTYPE svg PUBLIC "-//W3C//DTD SVG 1.1//EN" "http://www.w3.org/Graphics/SVG/1.1/DTD/svg11.dtd">
<svg version="1.1" id="Layer_1" xmlns="http://www.w3.org/2000/svg" xmlns:xlink="http://www.w3.org/1999/xlink" x="0px" y="0px"
	 width="64px" height="64px" viewBox="0 0 64 64" enable-background="new 0 0 64 64" xml:space="preserve">
<path fill-rule="evenodd" clip-rule="evenodd" fill="#221F1F" d="M22.205,35.771c0,0.939-0.761,1.7-1.7,1.7
	c-0.939,0-1.701-0.761-1.701-1.7v-7.678c0-0.938,0.761-1.7,1.701-1.7c0.938,0,1.7,0.761,1.7,1.7V35.771z"/>
<path fill-rule="evenodd" clip-rule="evenodd" fill="#221F1F" d="M40.521,39.882c0,0.847-0.687,1.536-1.536,1.536h-2.253
	l0.001,0.134v4.093c0,0.938-0.762,1.699-1.701,1.699s-1.7-0.762-1.7-1.699v-4.093l0.009-0.134h-3.187l-0.002,0.134v4.093
	c0,0.938-0.762,1.699-1.701,1.699s-1.7-0.762-1.7-1.699v-4.093l-0.013-0.134h-1.77c-0.848,0-1.535-0.639-1.535-1.486V26.104
	L40.521,26.1V39.882z"/>
<path fill-rule="evenodd" clip-rule="evenodd" fill="#221F1F" d="M45.112,35.771c0,0.939-0.761,1.7-1.7,1.7
	c-0.938,0-1.699-0.761-1.699-1.7v-7.678c0-0.938,0.762-1.7,1.699-1.7c0.939,0,1.7,0.761,1.7,1.7V35.771z"/>
<path fill-rule="evenodd" clip-rule="evenodd" fill="#221F1F" d="M40.277,24.92c-0.525-2.365-2.139-4.347-4.314-5.447
	c-0.015-0.007,0.018-0.048,0.018-0.048l1.428-2.484l-0.375-0.204l-1.461,2.512c0,0-0.018,0.031-0.041,0.021
	c-1.056-0.463-2.229-0.724-3.465-0.73c-0.017,0-0.166,0-0.187,0c-1.231,0.008-2.402,0.269-3.456,0.73
	c-0.023,0.01-0.041-0.021-0.041-0.021l-1.461-2.512l-0.375,0.204l1.427,2.484c0,0,0.033,0.041,0.018,0.048
	c-2.176,1.1-3.789,3.083-4.314,5.447c-0.025,0.113-0.067,0.267-0.067,0.267h16.734C40.345,25.187,40.303,25.033,40.277,24.92z
	 M28.412,23.055c-0.546,0-0.987-0.442-0.987-0.987c0-0.545,0.441-0.987,0.987-0.987s0.987,0.442,0.987,0.987
	C29.398,22.613,28.958,23.055,28.412,23.055z M35.505,23.055c-0.545,0-0.988-0.442-0.988-0.987c0-0.545,0.443-0.987,0.988-0.987
	s0.988,0.442,0.988,0.987C36.493,22.613,36.05,23.055,35.505,23.055z"/>
</svg>
