<?xml version="1.0" encoding="utf-8"?>
<!-- Generator: Adobe Illustrator 15.0.0, SVG Export Plug-In . SVG Version: 6.00 Build 0)  -->
<!DOCTYPE svg PUBLIC "-//W3C//DTD SVG 1.1//EN" "http://www.w3.org/Graphics/SVG/1.1/DTD/svg11.dtd">
<svg version="1.1" id="Layer_1" xmlns="http://www.w3.org/2000/svg" xmlns:xlink="http://www.w3.org/1999/xlink" x="0px" y="0px"
	 width="64px" height="64px" viewBox="0 0 64 64" enable-background="new 0 0 64 64" xml:space="preserve">
<path fill-rule="evenodd" clip-rule="evenodd" fill="#221F1F" d="M31.165,23.601c0.061-5.996,5.566-6.255,5.566-6.255
	c-0.157,6.841-5.566,6.354-5.566,6.354S31.165,23.633,31.165,23.601z"/>
<path fill-rule="evenodd" clip-rule="evenodd" fill="#221F1F" d="M43.136,37.218c0,0-0.006,0.018-0.01,0.027
	c-1.049,2.789-2.572,5.066-3.352,5.777c-1.555,1.418-3.264,1.574-4.301,1.103c-1.025-0.469-2.309-0.937-3.34-0.945
	c-0.009,0-0.031,0-0.031,0h-0.047c0,0-0.024,0-0.033,0c-1.031,0.009-2.313,0.477-3.34,0.945c-1.036,0.472-2.745,0.315-4.3-1.103
	c-1.554-1.418-6.062-9.059-3.885-14.572c2.176-5.513,6.838-5.041,7.926-4.568c3.023,1.313,4.556,1.196,7.31,0
	c0.918-0.399,4.38-0.798,6.747,2.399c0.009,0.012,0.026,0.035,0.026,0.035l0.01,0.025c0,0-0.017,0.006-0.025,0.01
	c-1.972,0.746-3.393,2.85-3.393,5.329c0,2.729,1.725,5.006,4.01,5.512c0.009,0.003,0.031,0.007,0.031,0.007L43.136,37.218z"/>
</svg>
