<?xml version="1.0" encoding="utf-8"?>
<!-- Generator: Adobe Illustrator 15.0.0, SVG Export Plug-In . SVG Version: 6.00 Build 0)  -->
<!DOCTYPE svg PUBLIC "-//W3C//DTD SVG 1.1//EN" "http://www.w3.org/Graphics/SVG/1.1/DTD/svg11.dtd">
<svg version="1.1" id="Layer_1" xmlns="http://www.w3.org/2000/svg" xmlns:xlink="http://www.w3.org/1999/xlink" x="0px" y="0px"
	 width="64px" height="64px" viewBox="0 0 64 64" enable-background="new 0 0 64 64" xml:space="preserve">
<g id="social-black">
	<g>
		<path fill="#010202" d="M28.038,30.788c1.066-0.506,1.871-1.158,2.414-1.953c0.539-0.795,0.811-1.791,0.811-2.984
			c0-1.102-0.178-2.035-0.539-2.777c-0.371-0.756-0.887-1.355-1.547-1.807c-0.67-0.449-1.463-0.779-2.391-0.979
			c-0.936-0.201-1.957-0.299-3.092-0.299H12.532v23.682h11.477c1.061,0,2.096-0.135,3.094-0.399c1.01-0.265,1.91-0.672,2.693-1.228
			c0.779-0.551,1.412-1.265,1.873-2.146c0.461-0.869,0.693-1.901,0.693-3.104c0-1.482-0.354-2.744-1.072-3.803
			C30.573,31.946,29.493,31.208,28.038,30.788z M17.747,24.024h4.875c0.461,0,0.91,0.033,1.342,0.115
			c0.436,0.076,0.814,0.215,1.148,0.416c0.336,0.193,0.602,0.471,0.801,0.822c0.197,0.355,0.293,0.811,0.293,1.361
			c0,0.992-0.293,1.717-0.891,2.154c-0.605,0.445-1.371,0.664-2.295,0.664h-5.273V24.024z M26.849,38.044
			c-0.211,0.397-0.5,0.713-0.848,0.942c-0.35,0.236-0.762,0.4-1.23,0.503c-0.459,0.102-0.949,0.147-1.459,0.147h-5.564v-6.521h5.664
			c1.125,0,2.037,0.26,2.721,0.774c0.684,0.529,1.029,1.396,1.029,2.615C27.161,37.13,27.058,37.645,26.849,38.044z"/>
		<rect x="37.663" y="21.116" fill="#010202" width="11.176" height="2.336"/>
		<path fill="#010202" d="M49.779,29.159c-0.7-0.951-1.592-1.711-2.678-2.271c-1.086-0.57-2.358-0.85-3.809-0.85
			c-1.312,0-2.5,0.234-3.576,0.699c-1.076,0.465-2,1.104-2.779,1.91c-0.774,0.805-1.367,1.764-1.793,2.875
			c-0.422,1.107-0.635,2.305-0.635,3.585c0,1.326,0.205,2.554,0.615,3.656c0.412,1.111,0.992,2.057,1.742,2.857
			c0.766,0.797,1.678,1.406,2.77,1.844c1.088,0.432,2.305,0.648,3.656,0.648c1.938,0,3.602-0.443,4.965-1.336
			c1.381-0.885,2.391-2.359,3.057-4.424H47.17c-0.162,0.53-0.58,1.043-1.26,1.521c-0.689,0.479-1.51,0.719-2.459,0.719
			c-1.32,0-2.34-0.348-3.049-1.036c-0.705-0.689-1.162-1.972-1.162-3.324h12.373c0.088-1.332-0.021-2.604-0.33-3.82
			C50.975,31.194,50.479,30.108,49.779,29.159z M39.241,33.264c0.021-0.337,0.094-0.714,0.213-1.132
			c0.121-0.428,0.325-0.828,0.633-1.207c0.306-0.373,0.705-0.689,1.192-0.943c0.496-0.26,1.119-0.387,1.871-0.387
			c1.16,0,2.105,0.336,2.666,0.955c0.562,0.625,0.972,1.514,1.086,2.714H39.241z"/>
	</g>
</g>
</svg>
