<?xml version="1.0" encoding="utf-8"?>
<!-- Generator: Adobe Illustrator 15.0.0, SVG Export Plug-In . SVG Version: 6.00 Build 0)  -->
<!DOCTYPE svg PUBLIC "-//W3C//DTD SVG 1.1//EN" "http://www.w3.org/Graphics/SVG/1.1/DTD/svg11.dtd">
<svg version="1.1" id="Layer_1" xmlns="http://www.w3.org/2000/svg" xmlns:xlink="http://www.w3.org/1999/xlink" x="0px" y="0px"
	 width="64px" height="64px" viewBox="0 0 64 64" enable-background="new 0 0 64 64" xml:space="preserve">
<path fill-rule="evenodd" clip-rule="evenodd" fill="#221F1F" d="M21.277,23.194h4.139v0.001c0,0,0.094,0.006,0.141,0.005
	c1.259-0.032,2.252,1.061,2.252,2.304s-1.008,2.354-2.252,2.411c-0.047,0.002-0.141,0.001-0.141,0.001h-4.998L21.277,23.194z"/>
<path fill-rule="evenodd" clip-rule="evenodd" fill="#221F1F" d="M24.4,34.861c-0.047,0-0.142,0-0.142,0h-4.999l0.859-4.721h4.14
	v0.001c0,0,0.095,0.005,0.142,0.004c1.258-0.033,2.251,1.062,2.251,2.304C26.651,33.691,25.642,34.803,24.4,34.861z"/>
<path fill-rule="evenodd" clip-rule="evenodd" fill="#221F1F" d="M31.731,41.805c-0.047,0.002-0.142,0.002-0.142,0.002h-4.998
	l0.859-4.721h4.139c0,0,0.095,0.006,0.142,0.004c1.259-0.031,2.251,1.062,2.251,2.305C33.982,40.639,32.975,41.75,31.731,41.805z"/>
<path fill-rule="evenodd" clip-rule="evenodd" fill="#221F1F" d="M33.275,34.861c-0.049,0-0.141,0-0.141,0h-5l0.859-4.721h4.141
	v0.001c0,0,0.092,0.005,0.141,0.004c1.258-0.033,2.25,1.062,2.25,2.304C35.525,33.691,34.518,34.803,33.275,34.861z"/>
<path fill-rule="evenodd" clip-rule="evenodd" fill="#221F1F" d="M34.432,27.915c-0.047,0.002-0.141,0.001-0.141,0.001h-5
	l0.859-4.722h4.14v0.001c0,0,0.094,0.006,0.141,0.005c1.258-0.032,2.252,1.061,2.252,2.304S35.676,27.858,34.432,27.915z"/>
<path fill-rule="evenodd" clip-rule="evenodd" fill="#221F1F" d="M41.379,38.719c-0.049,0.002-0.143,0.002-0.143,0.002h-4.998
	l0.859-4.723h4.139V34c0,0,0.094,0.006,0.143,0.004c1.256-0.033,2.25,1.061,2.25,2.305C43.629,37.551,42.621,38.662,41.379,38.719z"
	/>
<path fill-rule="evenodd" clip-rule="evenodd" fill="#221F1F" d="M42.535,31.773c-0.047,0.002-0.141,0.001-0.141,0.001h-4.998
	l0.859-4.721h4.139c0,0,0.094,0.006,0.141,0.005c1.26-0.032,2.252,1.061,2.252,2.305C44.787,30.606,43.779,31.716,42.535,31.773z"/>
</svg>
