<?xml version="1.0" encoding="utf-8"?>
<!-- Generator: Adobe Illustrator 15.0.0, SVG Export Plug-In . SVG Version: 6.00 Build 0)  -->
<!DOCTYPE svg PUBLIC "-//W3C//DTD SVG 1.1//EN" "http://www.w3.org/Graphics/SVG/1.1/DTD/svg11.dtd">
<svg version="1.1" id="Layer_1" xmlns="http://www.w3.org/2000/svg" xmlns:xlink="http://www.w3.org/1999/xlink" x="0px" y="0px"
	 width="64px" height="64px" viewBox="0 0 64 64" enable-background="new 0 0 64 64" xml:space="preserve">
<g id="deviantArt">
	<path fill="#010202" d="M25.44,24.288c-0.121,0.018-0.225,0.049-0.344,0.068l-1.986-3.793l-6.146-0.027l2.66,5.373
		c-12.41,5.154-6.912,17.31-6.912,17.31l18.936-5.482l-5.201-10.625c9.338-2.699,17.137,2.82,17.137,2.82l-6.428,1.746l-1.852-3.459
		c-1.742-0.324-3.726-0.424-5.837-0.068l4.375,8.945l18.908-5.478C52.751,31.618,45.896,20.784,25.44,24.288z M17.837,36.922
		c0,0-1.824-4.052,3.482-7.523l2.824,5.81L17.837,36.922z"/>
</g>
</svg>
