<?xml version="1.0" encoding="utf-8"?>
<!-- Generator: Adobe Illustrator 15.0.0, SVG Export Plug-In . SVG Version: 6.00 Build 0)  -->
<!DOCTYPE svg PUBLIC "-//W3C//DTD SVG 1.1//EN" "http://www.w3.org/Graphics/SVG/1.1/DTD/svg11.dtd">
<svg version="1.1" id="Layer_1" xmlns="http://www.w3.org/2000/svg" xmlns:xlink="http://www.w3.org/1999/xlink" x="0px" y="0px"
	 width="64px" height="64px" viewBox="0 0 64 64" enable-background="new 0 0 64 64" xml:space="preserve">
<g id="dribbble">
	<path fill="#010202" d="M31.84,15.196c-9.209,0-16.676,7.468-16.676,16.679c0,9.206,7.466,16.675,16.676,16.675
		c9.209,0,16.676-7.469,16.676-16.675C48.516,22.664,41.049,15.196,31.84,15.196z M31.838,17.406c3.594,0,6.889,1.306,9.426,3.473
		c0,0-2.787,3.533-7.605,5.513c-2.406-4.411-5.38-8.545-5.38-8.545C29.417,17.559,30.61,17.406,31.838,17.406z M25.643,18.791
		c0,0,2.976,4.026,5.418,8.431c-5.488,1.413-13.435,1.762-13.435,1.762C18.554,24.459,21.583,20.71,25.643,18.791z M17.332,31.914
		c0-0.249,0.006-0.492,0.02-0.732c0,0,8.904-0.345,14.807-1.942c0.214,0.434,0.399,0.866,0.593,1.292
		c0.209,0.484,0.428,0.958,0.625,1.465c-0.751,0.191-1.467,0.406-2.146,0.706c-6.085,2.677-10.18,8.906-10.18,8.906
		C18.74,39.046,17.332,35.646,17.332,31.914z M31.838,46.42c-3.428,0-6.583-1.189-9.068-3.184c0,0,2.817-4.896,8.521-8.098
		c0.874-0.49,1.838-0.846,2.812-1.117c1.965,5.584,3.123,11.365,3.123,11.365C35.557,46.053,33.742,46.42,31.838,46.42z
		 M39.811,44.036c0,0-1.063-5.091-2.99-10.527c4.762-0.548,9.371,0.533,9.371,0.533C45.578,38.221,43.182,41.812,39.811,44.036z
		 M36.055,31.504c-0.203-0.519-0.41-1.027-0.629-1.538c-0.223-0.521-0.475-1.041-0.734-1.578c5.125-2.096,8.24-5.827,8.24-5.827
		c2.131,2.523,3.414,5.786,3.414,9.353C46.346,31.914,41.125,30.92,36.055,31.504z"/>
</g>
</svg>
