<?xml version="1.0" encoding="utf-8"?>
<!-- Generator: Adobe Illustrator 15.0.0, SVG Export Plug-In . SVG Version: 6.00 Build 0)  -->
<!DOCTYPE svg PUBLIC "-//W3C//DTD SVG 1.1//EN" "http://www.w3.org/Graphics/SVG/1.1/DTD/svg11.dtd">
<svg version="1.1" id="Layer_1" xmlns="http://www.w3.org/2000/svg" xmlns:xlink="http://www.w3.org/1999/xlink" x="0px" y="0px"
	 width="64px" height="64px" viewBox="0 0 64 64" enable-background="new 0 0 64 64" xml:space="preserve">
<g>
	<g>
		<g>
			<path fill="#221F1F" d="M26.198,33.729c-0.812,0-1.47,1-1.47,2.234s0.658,2.234,1.47,2.234c0.812,0,1.471-1,1.471-2.234
				S27.01,33.729,26.198,33.729z M44.458,26.463c0.248-0.604,1.067-3.039-0.233-6.337c0,0-2.011-0.644-6.578,2.455
				c-1.914-0.531-3.965-0.797-6-0.806c-2.035,0.009-4.083,0.274-5.994,0.806c-4.575-3.099-6.585-2.455-6.585-2.455
				c-1.301,3.298-0.48,5.733-0.231,6.337c-1.532,1.677-2.468,3.812-2.468,6.428c0,9.172,5.591,11.226,10.908,11.832
				c0,0,2.344,0.149,4.531,0.137c2.187-0.012,4.182-0.156,4.182-0.156c5.33-0.594,10.932-2.617,10.932-11.812
				C46.921,30.275,45.993,28.14,44.458,26.463z M39.622,41.827c0,0-1.64,1.467-7.093,1.464c-0.077,0-0.237,0-0.237,0h-1.571
				c0,0-0.182,0-0.271,0c-5.425-0.002-7.057-1.464-7.057-1.464c-3.112-2.173-2.851-6.17-2.851-8.089
				c0-1.919,1.275-3.475,2.851-3.475c0,0,3.416,1.051,7.103,1.101c0.09,0.002,0.271,0.002,0.271,0.002h1.479
				c0,0,0.189,0,0.283-0.002c3.682-0.052,7.092-1.101,7.092-1.101c1.572,0,2.85,1.556,2.85,3.475
				C42.471,35.657,42.732,39.654,39.622,41.827z M36.784,33.729c-0.812,0-1.472,1-1.472,2.234s0.658,2.234,1.472,2.234
				c0.812,0,1.469-1,1.469-2.234S37.596,33.729,36.784,33.729z"/>
		</g>
	</g>
</g>
</svg>
