<?xml version="1.0" encoding="utf-8"?>
<!-- Generator: Adobe Illustrator 15.0.0, SVG Export Plug-In . SVG Version: 6.00 Build 0)  -->
<!DOCTYPE svg PUBLIC "-//W3C//DTD SVG 1.1//EN" "http://www.w3.org/Graphics/SVG/1.1/DTD/svg11.dtd">
<svg version="1.1" id="Layer_1" xmlns="http://www.w3.org/2000/svg" xmlns:xlink="http://www.w3.org/1999/xlink" x="0px" y="0px"
	 width="64px" height="64px" viewBox="0 0 64 64" enable-background="new 0 0 64 64" xml:space="preserve">
<g id="googleplus">
	<path fill="#010202" d="M27.551,30.922c0.066-1.12,1.513-2.107,1.513-2.107s2.962-2.237,3.159-4.341
		c0.195-2.105,0.064-4.08,0.064-4.08s-0.064-2.105-2.5-3.225c0,0-0.656-0.527,0.66-0.527c1.314,0,3.42-0.33,3.29-1.185l-9.673,0.017
		c0,0-6.188,0.114-8.093,4.656c-1.909,4.541,0.131,8.158,1.448,9.015C18.73,30,19.983,30.66,23.272,30.66l0.069,2.369
		c0,0,1.249,0.26,1.249,1.642c0,0-11.381-0.13-11.381,7.11c0,7.234,9.801,6.906,9.801,6.906s5.132-0.195,8.227-2.498
		c3.092-2.306,3.486-7.371,1.117-10.135C29.989,33.288,27.484,32.039,27.551,30.922z M19.542,24.13
		c-0.919-3.103,0.159-6.157,2.404-6.821c2.246-0.664,4.815,1.316,5.728,4.419c0.918,3.107-0.161,6.162-2.408,6.825
		C23.021,29.215,20.457,27.237,19.542,24.13z M24.379,46.312c-3.877,0.311-7.2-1.688-7.421-4.467
		c-0.221-2.777,2.741-5.285,6.615-5.594c3.879-0.309,7.204,1.691,7.422,4.471C31.217,43.503,28.256,46.005,24.379,46.312z"/>
	<polygon fill="#010202" points="44.342,17.409 42.436,17.409 42.445,23.287 36.561,23.283 36.561,25.19 42.46,25.208 
		42.436,31.289 44.342,31.289 44.339,25.208 50.218,25.19 50.218,23.283 44.339,23.287 	"/>
</g>
</svg>
