<?xml version="1.0" encoding="utf-8"?>
<!-- Generator: Adobe Illustrator 15.0.0, SVG Export Plug-In . SVG Version: 6.00 Build 0)  -->
<!DOCTYPE svg PUBLIC "-//W3C//DTD SVG 1.1//EN" "http://www.w3.org/Graphics/SVG/1.1/DTD/svg11.dtd">
<svg version="1.1" id="Layer_1" xmlns="http://www.w3.org/2000/svg" xmlns:xlink="http://www.w3.org/1999/xlink" x="0px" y="0px"
	 width="64px" height="64px" viewBox="0 0 64 64" enable-background="new 0 0 64 64" xml:space="preserve">
<g id="instagram">
	<rect x="48.928" y="29.045" fill="#010202" width="0.107" height="2.639"/>
	<path fill="#010202" d="M40.527,16.553H23.648c-4.639,0-8.4,3.76-8.4,8.398v2.998h-0.012v2.639h0.012v-1.543h8.072
		c1.387-3.18,4.549-5.404,8.236-5.404s6.852,2.225,8.238,5.404h0.022h9.109v-4.094C48.928,20.312,45.164,16.553,40.527,16.553z
		 M45.852,26.047h-5.414v-5.418h5.414V26.047z"/>
	<path fill="#010202" d="M40.451,31.684c0.033,0.314,0.096,0.621,0.096,0.945c0,4.967-4.025,8.99-8.99,8.99
		c-4.963,0-8.988-4.023-8.988-8.99c0-0.324,0.062-0.631,0.096-0.945h-7.416v7.41c0,4.639,3.762,8.4,8.4,8.4h16.878
		c4.638,0,8.4-3.762,8.4-8.4v-7.41h-8.453H40.451z"/>
	<path fill="#010202" d="M31.559,38.027c2.979,0,5.395-2.414,5.395-5.396c0-0.324-0.041-0.639-0.097-0.949h0.02
		c-0.182-1.008-0.643-1.908-1.299-2.639h-0.02c-0.99-1.1-2.406-1.805-4-1.805c-1.594,0-3.01,0.705-3.998,1.805
		c-0.656,0.73-1.117,1.631-1.299,2.639c-0.055,0.311-0.096,0.625-0.096,0.949C26.166,35.613,28.58,38.027,31.559,38.027z"/>
</g>
</svg>
