<?xml version="1.0" encoding="utf-8"?>
<!-- Generator: Adobe Illustrator 15.0.0, SVG Export Plug-In . SVG Version: 6.00 Build 0)  -->
<!DOCTYPE svg PUBLIC "-//W3C//DTD SVG 1.1//EN" "http://www.w3.org/Graphics/SVG/1.1/DTD/svg11.dtd">
<svg version="1.1" id="Layer_1" xmlns="http://www.w3.org/2000/svg" xmlns:xlink="http://www.w3.org/1999/xlink" x="0px" y="0px"
	 width="64px" height="64px" viewBox="0 0 64 64" enable-background="new 0 0 64 64" xml:space="preserve">
<g id="linkedin">
	<path fill="#010202" d="M33.516,29.855V29.81c-0.011,0.014-0.023,0.032-0.033,0.046L33.516,29.855L33.516,29.855z"/>
	<path fill="#010202" d="M47.161,15.434H16.222c-1.18,0-2.139,0.96-2.139,2.145v28.629c0,1.181,0.959,2.144,2.139,2.144h30.939
		c1.185,0,2.146-0.963,2.146-2.144v-28.63C49.307,16.394,48.346,15.434,47.161,15.434z M25.262,41.893h-4.684V27.814h4.684V41.893z
		 M22.92,25.895h-0.032c-1.569,0-2.587-1.085-2.587-2.437c0-1.378,1.05-2.432,2.649-2.432c1.601,0,2.589,1.054,2.613,2.432
		C25.564,24.81,24.551,25.895,22.92,25.895z M43.12,41.893h-4.687v-7.533c0-1.891-0.674-3.185-2.367-3.185
		c-1.291,0-2.062,0.876-2.401,1.716c-0.123,0.303-0.149,0.715-0.149,1.141v7.861h-4.687c0,0,0.064-12.757,0-14.078h4.687v1.995
		c0.616-0.959,1.729-2.326,4.215-2.326c3.076,0,5.391,2.014,5.391,6.34L43.12,41.893L43.12,41.893z"/>
</g>
</svg>
