<?xml version="1.0" encoding="utf-8"?>
<!-- Generator: Adobe Illustrator 15.0.0, SVG Export Plug-In . SVG Version: 6.00 Build 0)  -->
<!DOCTYPE svg PUBLIC "-//W3C//DTD SVG 1.1//EN" "http://www.w3.org/Graphics/SVG/1.1/DTD/svg11.dtd">
<svg version="1.1" id="Layer_1" xmlns="http://www.w3.org/2000/svg" xmlns:xlink="http://www.w3.org/1999/xlink" x="0px" y="0px"
	 width="64px" height="64px" viewBox="0 0 64 64" enable-background="new 0 0 64 64" xml:space="preserve">
<g id="pinterest">
	<path fill="#010202" d="M32.824,13.876c-9.946,0-14.961,7.131-14.961,13.077c0,3.6,1.363,6.804,4.287,7.998
		c0.479,0.195,0.909,0.007,1.048-0.523c0.097-0.367,0.325-1.295,0.428-1.681c0.14-0.525,0.085-0.709-0.301-1.167
		c-0.844-0.995-1.382-2.281-1.382-4.105c0-5.291,3.958-10.026,10.307-10.026c5.622,0,8.71,3.435,8.71,8.022
		c0,6.035-2.671,11.13-6.636,11.13c-2.191,0-3.831-1.812-3.305-4.033c0.628-2.651,1.847-5.513,1.847-7.427
		c0-1.714-0.919-3.143-2.823-3.143c-2.238,0-4.037,2.316-4.037,5.418c0,1.976,0.667,3.312,0.667,3.312s-2.292,9.708-2.693,11.408
		c-0.8,3.386-0.12,7.535-0.062,7.955c0.033,0.247,0.352,0.308,0.498,0.119c0.206-0.271,2.873-3.562,3.779-6.851
		c0.256-0.933,1.472-5.756,1.472-5.756c0.728,1.39,2.854,2.609,5.114,2.609c6.729,0,11.296-6.135,11.296-14.346
		C46.078,19.659,40.816,13.876,32.824,13.876z"/>
</g>
</svg>
