<?xml version="1.0" encoding="utf-8"?>
<!-- Generator: Adobe Illustrator 15.0.0, SVG Export Plug-In . SVG Version: 6.00 Build 0)  -->
<!DOCTYPE svg PUBLIC "-//W3C//DTD SVG 1.1//EN" "http://www.w3.org/Graphics/SVG/1.1/DTD/svg11.dtd">
<svg version="1.1" id="Layer_1" xmlns="http://www.w3.org/2000/svg" xmlns:xlink="http://www.w3.org/1999/xlink" x="0px" y="0px"
	 width="64px" height="64px" viewBox="0 0 64 64" enable-background="new 0 0 64 64" xml:space="preserve">
<path id="rss_5_" fill="#010202" d="M22.315,45.115c-1.943,0-3.52-1.574-3.52-3.52c0-1.943,1.576-3.519,3.52-3.519
	c1.945,0,3.521,1.573,3.521,3.519C25.837,43.541,24.261,45.115,22.315,45.115z M31.147,45.141c0-3.322-1.285-6.442-3.617-8.789
	c-2.332-2.34-5.43-3.631-8.73-3.631v-5.08c9.611,0,17.433,7.85,17.433,17.5H31.147z M40.124,45.146
	c0-11.818-9.561-21.435-21.316-21.435V18.63c14.559,0,26.4,11.895,26.4,26.517H40.124z"/>
</svg>
