<?xml version="1.0" encoding="utf-8"?>
<!-- Generator: Adobe Illustrator 15.0.0, SVG Export Plug-In . SVG Version: 6.00 Build 0)  -->
<!DOCTYPE svg PUBLIC "-//W3C//DTD SVG 1.1//EN" "http://www.w3.org/Graphics/SVG/1.1/DTD/svg11.dtd">
<svg version="1.1" id="Layer_1" xmlns="http://www.w3.org/2000/svg" xmlns:xlink="http://www.w3.org/1999/xlink" x="0px" y="0px"
	 width="512px" height="512px" viewBox="0 0 512 512" enable-background="new 0 0 512 512" xml:space="preserve">
<path id="code-9-icon" d="M406.104,227.631c-8.229-103.647-144.707-137.799-200.49-49.047
	c-36.182-20.457-82.326,3.611-85.217,45.898C80.729,229.34,50,263.122,50,304.104c0,44.318,35.928,80.246,80.246,80.246h251.508
	c44.318,0,80.246-35.928,80.246-80.246C462,268.275,438.516,237.943,406.104,227.631z M243.153,253.497l-49.945,26.44l49.945,26.636
	v24.063l-78.262-41.783v-17.689l78.262-41.784V253.497L243.153,253.497z M363.109,288.854l-78.262,41.784v-24.063l49.942-26.635
	l-49.942-26.441V229.38l78.262,41.784V288.854z"/>
</svg>
