<?xml version="1.0" encoding="utf-8"?>
<!-- Generator: Adobe Illustrator 15.0.0, SVG Export Plug-In . SVG Version: 6.00 Build 0)  -->
<!DOCTYPE svg PUBLIC "-//W3C//DTD SVG 1.1//EN" "http://www.w3.org/Graphics/SVG/1.1/DTD/svg11.dtd">
<svg version="1.1" id="Layer_1" xmlns="http://www.w3.org/2000/svg" xmlns:xlink="http://www.w3.org/1999/xlink" x="0px" y="0px"
	 width="64px" height="64px" viewBox="0 0 64 64" enable-background="new 0 0 64 64" xml:space="preserve">
<path fill="#221F1F" d="M14.255,37.719c0,0.254-0.205,0.458-0.458,0.458s-0.458-0.204-0.458-0.458v-4.461
	c0-0.253,0.205-0.458,0.458-0.458s0.458,0.205,0.458,0.458V37.719z"/>
<path fill="#221F1F" d="M17.293,39.412c0,0.253-0.205,0.458-0.458,0.458s-0.458-0.205-0.458-0.458v-8.346
	c0-0.253,0.205-0.458,0.458-0.458s0.458,0.205,0.458,0.458V39.412z"/>
<path fill="#221F1F" d="M20.282,40.408c0,0.253-0.205,0.458-0.458,0.458c-0.253,0-0.458-0.205-0.458-0.458V28.576
	c0-0.253,0.205-0.458,0.458-0.458c0.253,0,0.458,0.205,0.458,0.458V40.408z"/>
<path fill="#221F1F" d="M23.27,40.408c0,0.253-0.205,0.458-0.458,0.458s-0.458-0.205-0.458-0.458V26.484
	c0-0.253,0.205-0.458,0.458-0.458s0.458,0.205,0.458,0.458V40.408z"/>
<path fill="#221F1F" d="M26.308,40.408c0,0.253-0.205,0.458-0.458,0.458s-0.458-0.205-0.458-0.458V24.741
	c0-0.253,0.205-0.458,0.458-0.458s0.458,0.205,0.458,0.458V40.408z"/>
<path fill="#221F1F" d="M29.545,40.408c0,0.253-0.205,0.458-0.458,0.458s-0.458-0.205-0.458-0.458V25.837
	c0-0.253,0.205-0.458,0.458-0.458s0.458,0.205,0.458,0.458V40.408z"/>
<path fill="#221F1F" d="M45.984,41.062c-0.092,0-14.033,0.002-14.045,0c-0.303-0.031-0.543-0.289-0.548-0.6V24.375
	c0.004-0.296,0.105-0.448,0.487-0.596c0.983-0.38,2.099-0.605,3.241-0.605c4.67,0,8.5,3.582,8.904,8.149
	c0.604-0.253,1.265-0.394,1.959-0.394c2.799,0,5.066,2.269,5.066,5.067C51.051,38.795,48.782,41.062,45.984,41.062z"/>
</svg>
