<?xml version="1.0" encoding="utf-8"?>
<!-- Generator: Adobe Illustrator 15.0.0, SVG Export Plug-In . SVG Version: 6.00 Build 0)  -->
<!DOCTYPE svg PUBLIC "-//W3C//DTD SVG 1.1//EN" "http://www.w3.org/Graphics/SVG/1.1/DTD/svg11.dtd">
<svg version="1.1" id="Layer_1" xmlns="http://www.w3.org/2000/svg" xmlns:xlink="http://www.w3.org/1999/xlink" x="0px" y="0px"
	 width="64px" height="64px" viewBox="0 0 64 64" enable-background="new 0 0 64 64" xml:space="preserve">
<path fill="#221F1F" d="M42.242,42.484c-0.406,0.652-1.27,0.863-1.924,0.465c-5.258-3.217-11.874-3.938-19.667-2.16
	c-0.748,0.168-1.504-0.299-1.673-1.053c-0.171-0.752,0.297-1.496,1.053-1.668c8.523-1.952,15.842-1.109,21.746,2.5
	C42.436,40.964,42.639,41.823,42.242,42.484z"/>
<path fill="#221F1F" d="M44.98,36.385c-0.51,0.821-1.584,1.08-2.404,0.576c-6.014-3.703-15.192-4.77-22.31-2.611
	c-0.923,0.281-1.898-0.242-2.18-1.166c-0.278-0.919,0.243-1.897,1.163-2.168c8.135-2.475,18.247-1.272,25.153,2.969
	C45.223,34.495,45.48,35.566,44.98,36.385z"/>
<path fill="#221F1F" d="M48.08,29.214c-0.586,0.996-1.871,1.32-2.865,0.729c-7.219-4.284-19.125-4.679-26.01-2.585
	c-1.112,0.332-2.279-0.294-2.613-1.397c-0.336-1.105,0.286-2.279,1.395-2.615c7.911-2.4,21.061-1.936,29.365,2.996
	C48.342,26.932,48.676,28.214,48.08,29.214z"/>
</svg>
