<?xml version="1.0" encoding="utf-8"?>
<!-- Generator: Adobe Illustrator 15.0.0, SVG Export Plug-In . SVG Version: 6.00 Build 0)  -->
<!DOCTYPE svg PUBLIC "-//W3C//DTD SVG 1.1//EN" "http://www.w3.org/Graphics/SVG/1.1/DTD/svg11.dtd">
<svg version="1.1" id="Layer_1" xmlns="http://www.w3.org/2000/svg" xmlns:xlink="http://www.w3.org/1999/xlink" x="0px" y="0px"
	 width="64px" height="64px" viewBox="0 0 64 64" enable-background="new 0 0 64 64" xml:space="preserve">
<path id="tumblr_5_" fill="#010202" d="M41.652,45.705c-1.385,0.65-2.633,1.107-3.754,1.369c-1.121,0.266-2.334,0.395-3.637,0.395
	c-1.476,0-2.787-0.186-3.921-0.561c-1.137-0.375-2.105-0.906-2.906-1.598c-0.805-0.691-1.361-1.429-1.672-2.207
	c-0.309-0.775-0.465-1.904-0.465-3.386v-11.87h-3.576v-4.051c0.592-0.191,5.928-0.338,6.582-7.365h4.602v6.863h7.673v4.553h-7.673
	v8.82c0,1.879,0.099,3.082,0.294,3.611c0.2,0.533,0.569,0.961,1.11,1.277c0.713,0.43,1.531,0.643,2.455,0.643
	c1.635,0,3.267-0.533,4.887-1.598V45.705z"/>
</svg>
