<?xml version="1.0" encoding="utf-8"?>
<!-- Generator: Adobe Illustrator 15.0.0, SVG Export Plug-In . SVG Version: 6.00 Build 0)  -->
<!DOCTYPE svg PUBLIC "-//W3C//DTD SVG 1.1//EN" "http://www.w3.org/Graphics/SVG/1.1/DTD/svg11.dtd">
<svg version="1.1" id="Layer_1" xmlns="http://www.w3.org/2000/svg" xmlns:xlink="http://www.w3.org/1999/xlink" x="0px" y="0px"
	 width="64px" height="64px" viewBox="0 0 64 64" enable-background="new 0 0 64 64" xml:space="preserve">
<path id="twitter_5_" fill="#010202" d="M40.451,49.211l-10.094-0.02c-6.186,0-11.383-5.631-11.383-11.817V18.792
	c0-2.305,1.871-4.178,4.179-4.178c2.308,0,4.178,1.873,4.178,4.178l-0.015,4.541H40.18c2.381,0,4.312,1.93,4.312,4.311
	c0,2.382-1.932,4.312-4.312,4.312H27.348l-0.006,1.97l-0.011,2.535c0.157,2.328,2.074,4.174,4.447,4.174l8.674-0.051
	c2.379,0,4.312,1.932,4.312,4.314C44.764,47.277,42.83,49.211,40.451,49.211z"/>
</svg>
