<?xml version="1.0" encoding="utf-8"?>
<!-- Generator: Adobe Illustrator 15.0.0, SVG Export Plug-In . SVG Version: 6.00 Build 0)  -->
<!DOCTYPE svg PUBLIC "-//W3C//DTD SVG 1.1//EN" "http://www.w3.org/Graphics/SVG/1.1/DTD/svg11.dtd">
<svg version="1.1" id="Layer_1" xmlns="http://www.w3.org/2000/svg" xmlns:xlink="http://www.w3.org/1999/xlink" x="0px" y="0px"
	 width="64px" height="64px" viewBox="0 0 64 64" enable-background="new 0 0 64 64" xml:space="preserve">
<path id="vimeo_5_" fill="#010202" d="M50.305,25.19c-1.496,5.982-6.412,12.71-9.512,16.236c-3.095,3.527-7.582,9.188-12.496,8.443
	c0,0-3.848,0.213-5.985-8.764c-2.139-8.972-3.952-14.849-5.554-15.273c-1.604-0.429-3.633,1.602-3.633,1.602l-1.922-2.459
	l7.315-6.304c0,0,2.728-2.669,5.077-2.56c2.35,0.104,3.952,2.35,4.593,5.553c0.644,3.204,2.244,15.703,4.594,15.595
	c2.349-0.104,7.267-7.691,6.198-11.216c-1.068-3.524-5.453-0.96-5.453-0.96s2.037-7.904,8.658-8.972
	C48.809,15.042,51.8,19.207,50.305,25.19z"/>
</svg>
