<?xml version="1.0" encoding="utf-8"?>
<!-- Generator: Adobe Illustrator 15.0.0, SVG Export Plug-In . SVG Version: 6.00 Build 0)  -->
<!DOCTYPE svg PUBLIC "-//W3C//DTD SVG 1.1//EN" "http://www.w3.org/Graphics/SVG/1.1/DTD/svg11.dtd">
<svg version="1.1" id="Layer_1" xmlns="http://www.w3.org/2000/svg" xmlns:xlink="http://www.w3.org/1999/xlink" x="0px" y="0px"
	 width="64px" height="64px" viewBox="0 0 64 64" enable-background="new 0 0 64 64" xml:space="preserve">
<g id="social-black">
	<path id="vine_5_" fill="#010202" d="M46.667,36.073l-4.119,0.228c0,0-6.394,12.362-11.133,12.362
		c-0.106,0-9.836-0.687-14.521-28.551h6.017c0,0,0.268,12.701,8.712,23.014c0.042,0.056,3.218-2.883,5.855-7.937
		c0.015-0.024-6.254-3.521-6.113-11.044c0.14-7.523,4.693-9.145,7.736-9.077c3.045,0.069,7.762,1.304,7.529,7.566
		c-0.229,6.263-1.238,6.4-1.238,6.4s-1.596,0.216-2.392,0.006c-0.792-0.207-2.349-1.466-2.349-1.466s1.953-7.315-1.68-7.524
		c-3.635-0.207-2.193,6.602-1.74,7.459c0.451,0.859,1.759,3.337,4.836,4.412c0.125,0.042,4.599,0,4.599,0V36.073z"/>
</g>
</svg>
