<?xml version="1.0" encoding="utf-8"?>
<!-- Generator: Adobe Illustrator 15.0.0, SVG Export Plug-In . SVG Version: 6.00 Build 0)  -->
<!DOCTYPE svg PUBLIC "-//W3C//DTD SVG 1.1//EN" "http://www.w3.org/Graphics/SVG/1.1/DTD/svg11.dtd">
<svg version="1.1" id="Layer_1" xmlns="http://www.w3.org/2000/svg" xmlns:xlink="http://www.w3.org/1999/xlink" x="0px" y="0px"
	 width="68px" height="68px" viewBox="0 0 68 68" enable-background="new 0 0 68 68" xml:space="preserve">
<g id="white">
	<g>
		<path fill="#FFFFFF" d="M34.134,0.414c-18.475,0-33.452,14.977-33.452,33.452c0,18.474,14.977,33.452,33.452,33.452
			c18.474,0,33.454-14.978,33.454-33.452C67.588,15.391,52.608,0.414,34.134,0.414z M34.145,62.97
			c-16.299,0-29.516-13.219-29.516-29.517c0-16.302,13.217-29.516,29.516-29.516c16.304,0,29.518,13.215,29.518,29.516
			C63.663,49.751,50.451,62.97,34.145,62.97z M28.294,44.864l16.752-11.638L28.314,21.341L28.294,44.864z"/>
	</g>
</g>
<g id="black" display="none">
	<g display="inline">
		<path fill="#010202" d="M34.111,0.216c-18.72,0-33.896,15.176-33.896,33.897c0,18.719,15.176,33.896,33.896,33.896
			c18.72,0,33.899-15.177,33.899-33.896C68.01,15.392,52.831,0.216,34.111,0.216z M34.122,63.604
			c-16.516,0-29.908-13.394-29.908-29.91c0-16.519,13.392-29.909,29.908-29.909c16.521,0,29.911,13.391,29.911,29.909
			C64.033,50.21,50.645,63.604,34.122,63.604z M28.194,45.257l16.974-11.793L28.215,21.421L28.194,45.257z"/>
	</g>
</g>
</svg>
