<?xml version="1.0" encoding="utf-8"?>
<!-- Generator: Adobe Illustrator 15.0.0, SVG Export Plug-In . SVG Version: 6.00 Build 0)  -->
<!DOCTYPE svg PUBLIC "-//W3C//DTD SVG 1.1//EN" "http://www.w3.org/Graphics/SVG/1.1/DTD/svg11.dtd">
<svg version="1.1" id="Layer_1" xmlns="http://www.w3.org/2000/svg" xmlns:xlink="http://www.w3.org/1999/xlink" x="0px" y="0px"
	 width="68px" height="68px" viewBox="0 0 68 68" enable-background="new 0 0 68 68" xml:space="preserve">
<g id="white" display="none">
	<g display="inline">
		<path fill-rule="evenodd" clip-rule="evenodd" fill="#FFFFFF" d="M34.111,0.216c-18.72,0-33.896,15.176-33.896,33.897
			c0,18.719,15.176,33.896,33.896,33.896c18.72,0,33.899-15.177,33.899-33.896C68.01,15.392,52.831,0.216,34.111,0.216z
			 M34.122,63.604c-16.516,0-29.908-13.394-29.908-29.91c0-16.519,13.392-29.909,29.908-29.909
			c16.521,0,29.911,13.391,29.911,29.909C64.033,50.21,50.644,63.604,34.122,63.604z M28.194,45.257l16.974-11.793L28.215,21.421
			L28.194,45.257z"/>
	</g>
</g>
<g id="black">
	<g>
		<path fill-rule="evenodd" clip-rule="evenodd" fill="#010202" d="M34.111,0.216c-18.72,0-33.896,15.176-33.896,33.897
			c0,18.719,15.176,33.896,33.896,33.896c18.72,0,33.899-15.177,33.899-33.896C68.01,15.392,52.831,0.216,34.111,0.216z
			 M34.122,63.604c-16.516,0-29.908-13.394-29.908-29.91c0-16.519,13.392-29.909,29.908-29.909
			c16.521,0,29.911,13.391,29.911,29.909C64.033,50.21,50.644,63.604,34.122,63.604z M28.194,45.257l16.974-11.793L28.215,21.421
			L28.194,45.257z"/>
	</g>
</g>
</svg>
